# xmcd
#
# Track frame offsets:
#	150
#	15063
#	29505
#	53874
#	95754
#	116667
#	148570
#	179065
#	206626
#	231872
#	254488
#	288515
#
# Disc length: 4243 seconds
#
# Revision: 2
# Processed by: cddbd v1.5.2PL0 Copyright (c) Steve Scherf et al.
# Submitted via: audiograbber 1.83.01
#
DISCID=b010910c
DTITLE=Robert Glasper Experiment - ArtScience
DYEAR=2016
DGENRE=Jazz
TTITLE0=This Is Not Fear
TTITLE1=Thinkin Bout You
TTITLE2=Day To Day
TTITLE3=No One Like You
TTITLE4=You And Me
TTITLE5=Tell Me A Bedtime Story
TTITLE6=Find You
TTITLE7=In My Mind
TTITLE8=Hurry Slowly
TTITLE9=Written In Stone
TTITLE10=Let's Fall In Love
TTITLE11=Human
EXTD=
EXTT0=
EXTT1=
EXTT2=
EXTT3=
EXTT4=
EXTT5=
EXTT6=
EXTT7=
EXTT8=
EXTT9=
EXTT10=
EXTT11=
PLAYORDER=
